<svg width="15" height="15" viewBox="0 0 15 15" fill="none" xmlns="http://www.w3.org/2000/svg">
<path d="M14.1107 0.380127H5.55509C5.34013 0.380127 5.16619 0.55407 5.16619 0.769028C5.16619 0.983986 5.34013 1.15793 5.55509 1.15793H13.1719L0.613453 13.7163C0.461531 13.8682 0.461531 14.1143 0.613453 14.2662C0.689396 14.3421 0.788927 14.3801 0.888422 14.3801C0.987917 14.3801 1.08741 14.3421 1.16339 14.2662L13.7218 1.70783V9.3246C13.7218 9.53956 13.8957 9.7135 14.1107 9.7135C14.3257 9.7135 14.4996 9.53956 14.4996 9.3246V0.769028C14.4996 0.55407 14.3256 0.380127 14.1107 0.380127Z" fill="#405FF2"/>
</svg>
