<svg width="18" height="19" viewBox="0 0 18 19" fill="none" xmlns="http://www.w3.org/2000/svg">
<path d="M15.7801 7.56989H16.3201C16.4801 7.56989 16.6101 7.50989 16.7101 7.38989C16.8101 7.26989 16.8601 7.13989 16.8601 6.99989C16.8601 6.85989 16.8101 6.72989 16.7101 6.60989C16.6101 6.48989 16.4801 6.42989 16.3201 6.42989H14.9401L14.1001 4.98989C13.8201 4.54989 13.4701 4.20989 13.0501 3.96989C12.6301 3.72989 12.1601 3.60989 11.6401 3.60989H6.36014C5.84014 3.60989 5.37014 3.72989 4.95014 3.96989C4.53014 4.20989 4.18014 4.54989 3.90014 4.98989L3.06014 6.42989H1.68014C1.52014 6.42989 1.39014 6.48989 1.29014 6.60989C1.19014 6.72989 1.14014 6.85989 1.14014 6.99989C1.14014 7.13989 1.19014 7.26989 1.29014 7.38989C1.39014 7.50989 1.52014 7.56989 1.68014 7.56989H2.28014L1.92014 7.98989C1.40014 8.70989 1.14014 9.50989 1.14014 10.3899V13.2099C1.14014 13.6499 1.30014 14.0399 1.62014 14.3799C1.94014 14.7199 2.34014 14.8899 2.82014 14.8899H3.96014C4.40014 14.8899 4.79014 14.7199 5.13014 14.3799C5.47014 14.0399 5.64014 13.6499 5.64014 13.2099H12.3601C12.3601 13.6499 12.5301 14.0399 12.8701 14.3799C13.2101 14.7199 13.6001 14.8899 14.0401 14.8899H15.1801C15.6601 14.8899 16.0601 14.7199 16.3801 14.3799C16.7001 14.0399 16.8601 13.6499 16.8601 13.2099V10.3899C16.8601 9.50989 16.6001 8.70989 16.0801 7.98989L15.7801 7.56989ZM4.86014 5.58989C5.02014 5.30989 5.23014 5.09989 5.49014 4.95989C5.75014 4.81989 6.04014 4.74989 6.36014 4.74989H11.6401C11.9601 4.74989 12.2501 4.81989 12.5101 4.95989C12.7701 5.09989 12.9801 5.30989 13.1401 5.58989L13.8601 6.84989L13.5001 7.08989C13.0201 7.40989 12.5001 7.56989 11.9401 7.56989H6.06014C5.50014 7.56989 4.98014 7.40989 4.50014 7.08989L4.14014 6.84989L4.86014 5.58989ZM15.7801 13.2099C15.7801 13.3299 15.7201 13.4499 15.6001 13.5699C15.4801 13.6899 15.3401 13.7499 15.1801 13.7499H14.0401C13.9201 13.7499 13.8001 13.6899 13.6801 13.5699C13.5601 13.4499 13.5001 13.3299 13.5001 13.2099V12.6099C13.5001 12.4499 13.4501 12.3199 13.3501 12.2199C13.2501 12.1199 13.1201 12.0699 12.9601 12.0699H5.04014C4.88014 12.0699 4.75014 12.1199 4.65014 12.2199C4.55014 12.3199 4.50014 12.4499 4.50014 12.6099V13.2099C4.50014 13.3299 4.44014 13.4499 4.32014 13.5699C4.20014 13.6899 4.08014 13.7499 3.96014 13.7499H2.82014C2.66014 13.7499 2.52014 13.6899 2.40014 13.5699C2.28014 13.4499 2.22014 13.3299 2.22014 13.2099V10.3899C2.26014 9.74989 2.46014 9.18989 2.82014 8.70989L3.48014 7.74989L3.90014 8.04989C4.58014 8.48989 5.30014 8.70989 6.06014 8.70989H11.9401C12.7001 8.70989 13.4201 8.48989 14.1001 8.04989L14.5201 7.74989L15.1801 8.70989C15.5401 9.18989 15.7201 9.74989 15.7201 10.3899V13.2099H15.7801ZM13.5001 10.3899C13.5001 10.5499 13.5501 10.6799 13.6501 10.7799C13.7501 10.8799 13.8801 10.9299 14.0401 10.9299C14.2001 10.9299 14.3401 10.8799 14.4601 10.7799C14.5801 10.6799 14.6401 10.5499 14.6401 10.3899C14.6401 10.2299 14.5801 10.0899 14.4601 9.96989C14.3401 9.84989 14.2001 9.78989 14.0401 9.78989C13.8801 9.78989 13.7501 9.84989 13.6501 9.96989C13.5501 10.0899 13.5001 10.2299 13.5001 10.3899ZM3.36014 10.3899C3.36014 10.5499 3.42014 10.6799 3.54014 10.7799C3.66014 10.8799 3.80014 10.9299 3.96014 10.9299C4.12014 10.9299 4.25014 10.8799 4.35014 10.7799C4.45014 10.6799 4.50014 10.5499 4.50014 10.3899C4.50014 10.2299 4.45014 10.0899 4.35014 9.96989C4.25014 9.84989 4.12014 9.78989 3.96014 9.78989C3.80014 9.78989 3.66014 9.84989 3.54014 9.96989C3.42014 10.0899 3.36014 10.2299 3.36014 10.3899Z" fill="#050B20"/>
</svg>
