<svg width="19" height="19" viewBox="0 0 19 19" fill="none" xmlns="http://www.w3.org/2000/svg">
<g clip-path="url(#clip0_9_764)">
<path d="M17.66 8.65L11.96 2.95L13.46 1.45C13.58 1.33 13.64 1.17 13.64 0.970001C13.64 0.77 13.57 0.6 13.43 0.460001C13.29 0.32 13.13 0.25 12.95 0.25C12.77 0.25 12.6 0.309999 12.44 0.43L3.98 8.95C3.38 9.11 2.88 9.44 2.48 9.94C2.08 10.44 1.88 11.01 1.88 11.65C1.88 11.85 1.95 12.02 2.09 12.16C2.23 12.3 2.4 12.37 2.6 12.37C2.8 12.37 2.97 12.3 3.11 12.16C3.25 12.02 3.32 11.83 3.32 11.59C3.32 11.35 3.39 11.12 3.53 10.9C3.67 10.68 3.86 10.51 4.1 10.39L10.04 16.33C10.56 16.85 11.21 17.11 11.99 17.11C12.77 17.11 13.44 16.85 14 16.33L17.66 12.67C18.22 12.11 18.5 11.44 18.5 10.66C18.5 9.88 18.22 9.21 17.66 8.65ZM16.7 11.65L12.98 15.31C12.74 15.59 12.42 15.73 12.02 15.73C11.62 15.73 11.28 15.59 11 15.31L5.9 10.21H13.7C13.9 10.21 14.07 10.15 14.21 10.03C14.35 9.91 14.42 9.75 14.42 9.55C14.42 9.35 14.35 9.18 14.21 9.04C14.07 8.9 13.9 8.83 13.7 8.83H6.08L10.94 3.97L16.7 9.67C16.98 9.95 17.12 10.28 17.12 10.66C17.12 11.04 16.98 11.37 16.7 11.65ZM3.86 14.29C3.62 13.93 3.38 13.61 3.14 13.33C2.98 13.13 2.79 13.03 2.57 13.03C2.35 13.03 2.18 13.13 2.06 13.33C1.78 13.61 1.52 13.93 1.28 14.29C0.76 15.09 0.5 15.71 0.5 16.15C0.5 16.75 0.7 17.25 1.1 17.65C1.5 18.05 1.99 18.25 2.57 18.25C3.15 18.25 3.64 18.05 4.04 17.65C4.44 17.25 4.64 16.75 4.64 16.15C4.64 15.71 4.38 15.09 3.86 14.29ZM2.6 16.87C2.4 16.87 2.23 16.8 2.09 16.66C1.95 16.52 1.89 16.36 1.91 16.18C1.93 16 2.12 15.63 2.48 15.07L2.6 14.95L2.66 15.07C3.02 15.63 3.21 16 3.23 16.18C3.25 16.36 3.19 16.52 3.05 16.66C2.91 16.8 2.76 16.87 2.6 16.87Z" fill="#050B20"/>
</g>
<defs>
<clipPath id="clip0_9_764">
<rect width="18" height="18" fill="white" transform="matrix(1 0 0 -1 0.5 18.25)"/>
</clipPath>
</defs>
</svg>
