<svg width="19" height="19" viewBox="0 0 19 19" fill="none" xmlns="http://www.w3.org/2000/svg">
<g clip-path="url(#clip0_9_741)">
<path d="M9.5001 10.39C6.7801 10.39 4.7001 11.01 3.2601 12.25C1.8201 13.49 1.1001 15.27 1.1001 17.59C1.1001 17.79 1.1701 17.95 1.3101 18.07C1.4501 18.19 1.6001 18.25 1.7601 18.25H17.2401C17.4001 18.25 17.5501 18.19 17.6901 18.07C17.8301 17.95 17.9001 17.79 17.9001 17.59C17.9001 15.27 17.1801 13.49 15.7401 12.25C14.3001 11.01 12.2201 10.39 9.5001 10.39ZM2.4801 16.93C2.7201 13.45 5.0601 11.71 9.5001 11.71C13.9401 11.71 16.2801 13.45 16.5201 16.93H2.4801ZM9.5001 0.25C8.7001 0.25 7.9601 0.440001 7.2801 0.82C6.6001 1.2 6.0701 1.73 5.6901 2.41C5.3101 3.09 5.1201 3.85 5.1201 4.69C5.1201 5.53 5.3201 6.32 5.7201 7.06C6.1201 7.8 6.6501 8.38 7.3101 8.8C7.9701 9.22 8.7001 9.43 9.5001 9.43C10.3001 9.43 11.0301 9.22 11.6901 8.8C12.3501 8.38 12.8801 7.8 13.2801 7.06C13.6801 6.32 13.8801 5.53 13.8801 4.69C13.8801 3.85 13.6901 3.09 13.3101 2.41C12.9301 1.73 12.4001 1.2 11.7201 0.82C11.0401 0.440001 10.3001 0.25 9.5001 0.25ZM9.5001 8.11C8.6601 8.11 7.9401 7.78 7.3401 7.12C6.7401 6.46 6.4401 5.66 6.4401 4.72C6.4401 3.78 6.7301 3.02 7.3101 2.44C7.8901 1.86 8.6201 1.57 9.5001 1.57C10.3801 1.57 11.1101 1.87 11.6901 2.47C12.2701 3.07 12.5601 3.83 12.5601 4.75C12.5601 5.67 12.2601 6.46 11.6601 7.12C11.0601 7.78 10.3401 8.11 9.5001 8.11Z" fill="#050B20"/>
</g>
<defs>
<clipPath id="clip0_9_741">
<rect width="18" height="18" fill="white" transform="matrix(1 0 0 -1 0.5 18.25)"/>
</clipPath>
</defs>
</svg>
