<svg width="19" height="19" viewBox="0 0 19 19" fill="none" xmlns="http://www.w3.org/2000/svg">
<g clip-path="url(#clip0_9_758)">
<path d="M3.08 13.7C2.76 14.02 2.6 14.39 2.6 14.81C2.6 15.23 2.76 15.6 3.08 15.92C3.4 16.24 3.77 16.4 4.19 16.4C4.61 16.4 4.98 16.24 5.3 15.92C5.62 15.6 5.78 15.23 5.78 14.81C5.78 14.39 5.62 14.02 5.3 13.7C4.98 13.38 4.61 13.22 4.19 13.22C3.77 13.22 3.4 13.38 3.08 13.7ZM4.58 15.2C4.46 15.28 4.33 15.32 4.19 15.32C4.05 15.32 3.93 15.27 3.83 15.17C3.73 15.07 3.68 14.95 3.68 14.81C3.68 14.67 3.73 14.55 3.83 14.45C3.93 14.35 4.05 14.3 4.19 14.3C4.33 14.3 4.45 14.35 4.55 14.45C4.65 14.55 4.7 14.67 4.7 14.81C4.7 14.95 4.66 15.08 4.58 15.2ZM18.02 5.24L13.76 0.98C13.44 0.66 13.06 0.5 12.62 0.5C12.18 0.5 11.8 0.66 11.48 0.98L6.98 5.42L7.64 6.14C8.52 6.1 9.34 6.28 10.1 6.68L5.42 11.36C4.78 11.12 4.11 11.07 3.41 11.21C2.71 11.35 2.11 11.67 1.61 12.17C1.11 12.67 0.78 13.23 0.62 13.85C0.46 14.47 0.46 15.1 0.62 15.74C0.78 16.38 1.1 16.94 1.58 17.42C1.94 17.78 2.34 18.05 2.78 18.23C3.22 18.41 3.69 18.5 4.19 18.5C4.69 18.5 5.16 18.41 5.6 18.23C6.04 18.05 6.44 17.78 6.8 17.42C7.32 16.9 7.65 16.29 7.79 15.59C7.93 14.89 7.88 14.22 7.64 13.58L12.32 8.9C12.72 9.66 12.9 10.48 12.86 11.36L13.58 12.02L18.02 7.52C18.34 7.24 18.5 6.87 18.5 6.41C18.5 5.95 18.34 5.56 18.02 5.24ZM6.08 16.7C5.56 17.18 4.93 17.42 4.19 17.42C3.45 17.42 2.83 17.17 2.33 16.67C1.83 16.17 1.58 15.55 1.58 14.81C1.58 14.07 1.83 13.45 2.33 12.95C2.83 12.45 3.45 12.2 4.19 12.2C4.93 12.2 5.55 12.45 6.05 12.95C6.55 13.45 6.8 14.07 6.8 14.81C6.8 15.55 6.56 16.18 6.08 16.7ZM7.16 12.62C7.04 12.46 6.92 12.32 6.8 12.2C6.68 12.08 6.54 11.96 6.38 11.84L11 7.28C11.28 7.52 11.52 7.76 11.72 8L7.16 12.62ZM12.14 6.86C11.18 5.94 10.06 5.38 8.78 5.18L11 2.96L16.04 8L13.82 10.22C13.62 8.94 13.06 7.82 12.14 6.86ZM17.3 6.8L16.82 7.28L11.72 2.18L12.2 1.7C12.32 1.62 12.46 1.58 12.62 1.58C12.78 1.58 12.9 1.62 12.98 1.7L17.3 6.02C17.38 6.1 17.42 6.22 17.42 6.38C17.42 6.54 17.38 6.68 17.3 6.8Z" fill="#050B20"/>
</g>
<defs>
<clipPath id="clip0_9_758">
<rect width="18" height="18" fill="white" transform="matrix(1 0 0 -1 0.5 18.5)"/>
</clipPath>
</defs>
</svg>
