<svg width="19" height="19" viewBox="0 0 19 19" fill="none" xmlns="http://www.w3.org/2000/svg">
<g clip-path="url(#clip0_9_752)">
<path d="M18.02 8.01L11.24 1.23C10.92 0.91 10.54 0.75 10.1 0.75H2.06C1.62 0.75 1.25 0.9 0.95 1.2C0.65 1.5 0.5 1.87 0.5 2.31V17.19C0.5 17.63 0.65 18 0.95 18.3C1.25 18.6 1.62 18.75 2.06 18.75H10.58C10.78 18.75 10.92 18.65 11 18.45C11.6 17.25 12.48 16.29 13.64 15.57C14.8 14.85 16.06 14.49 17.42 14.49H17.96C18.12 14.49 18.25 14.44 18.35 14.34C18.45 14.24 18.5 14.11 18.5 13.95V9.15C18.5 8.71 18.34 8.33 18.02 8.01ZM17.42 13.47C15.86 13.47 14.42 13.87 13.1 14.67C11.9 15.43 10.94 16.43 10.22 17.67H2.06C1.94 17.67 1.83 17.62 1.73 17.52C1.63 17.42 1.58 17.31 1.58 17.19V2.31C1.58 2.19 1.63 2.08 1.73 1.98C1.83 1.88 1.94 1.83 2.06 1.83H10.1C10.26 1.83 10.4 1.87 10.52 1.95L17.3 8.73C17.38 8.85 17.42 8.99 17.42 9.15V13.47ZM16.22 9.21L10.04 3.03C9.96 2.91 9.84 2.85 9.68 2.85H3.14C2.98 2.85 2.85 2.9 2.75 3C2.65 3.1 2.6 3.23 2.6 3.39V9.75C2.6 9.91 2.65 10.04 2.75 10.14C2.85 10.24 2.98 10.29 3.14 10.29H15.8C15.96 10.29 16.09 10.24 16.19 10.14C16.29 10.04 16.34 9.91 16.34 9.75V9.57C16.34 9.41 16.3 9.29 16.22 9.21ZM3.68 9.21V3.93H9.44L14.72 9.21H3.68ZM6.32 12.39H3.14C2.98 12.39 2.85 12.44 2.75 12.54C2.65 12.64 2.6 12.77 2.6 12.93V13.47C2.6 14.03 2.81 14.52 3.23 14.94C3.65 15.36 4.15 15.57 4.73 15.57C5.31 15.57 5.8 15.36 6.2 14.94C6.6 14.52 6.8 14.03 6.8 13.47V12.93C6.8 12.77 6.75 12.64 6.65 12.54C6.55 12.44 6.44 12.39 6.32 12.39ZM4.7 14.49C4.42 14.49 4.18 14.39 3.98 14.19C3.78 13.99 3.68 13.73 3.68 13.41H5.78C5.78 13.73 5.68 13.99 5.48 14.19C5.28 14.39 5.02 14.49 4.7 14.49Z" fill="#050B20"/>
</g>
<defs>
<clipPath id="clip0_9_752">
<rect width="18" height="18" fill="white" transform="matrix(1 0 0 -1 0.5 18.75)"/>
</clipPath>
</defs>
</svg>
