<svg width="18" height="18" viewBox="0 0 18 18" fill="none" xmlns="http://www.w3.org/2000/svg">
<g clip-path="url(#clip0_9_734)">
<path d="M17.4 12.18C17.8 11.14 18 10.08 18 9C18 7.8 17.77 6.65 17.31 5.55C16.85 4.45 16.2 3.48 15.36 2.64C14.52 1.8 13.55 1.15 12.45 0.690001C11.35 0.23 10.2 0 9 0C7.8 0 6.65 0.23 5.55 0.690001C4.45 1.15 3.48 1.8 2.64 2.64C1.8 3.48 1.15 4.45 0.69 5.55C0.23 6.65 0 7.8 0 9C0 10.2 0.23 11.35 0.69 12.45C1.15 13.55 1.8 14.52 2.64 15.36C3.48 16.2 4.45 16.85 5.55 17.31C6.65 17.77 7.8 18 9 18C10.68 18 12.24 17.56 13.68 16.68C13.84 16.6 13.94 16.46 13.98 16.26C14.02 16.06 13.99 15.88 13.89 15.72C13.79 15.56 13.65 15.46 13.47 15.42C13.29 15.38 13.1 15.4 12.9 15.48C12.42 15.8 11.88 16.06 11.28 16.26C11.32 14.5 11.68 13.28 12.36 12.6C12.8 12.16 13.36 11.94 14.04 11.94C14.6 11.94 15.2 12.08 15.84 12.36C15.68 12.64 15.5 12.92 15.3 13.2C15.18 13.36 15.14 13.54 15.18 13.74C15.22 13.94 15.32 14.09 15.48 14.19C15.64 14.29 15.82 14.32 16.02 14.28C16.22 14.24 16.38 14.14 16.5 13.98C16.82 13.46 17.1 12.92 17.34 12.36L17.4 12.18ZM9 1.38C10.24 1.38 11.39 1.66 12.45 2.22C13.51 2.78 14.4 3.54 15.12 4.5C15.84 5.46 16.3 6.54 16.5 7.74C15.5 7.38 14.48 7.08 13.44 6.84C11.84 6.48 10.35 6.3 8.97 6.3C7.59 6.3 6.12 6.46 4.56 6.78C3.52 7.02 2.5 7.32 1.5 7.68C1.74 6.52 2.21 5.46 2.91 4.5C3.61 3.54 4.49 2.78 5.55 2.22C6.61 1.66 7.76 1.38 9 1.38ZM2.16 12.36C2.84 12.08 3.44 11.94 3.96 11.94H4.02C4.78 11.94 5.36 12.2 5.76 12.72C6.36 13.44 6.68 14.62 6.72 16.26C5.72 15.94 4.83 15.44 4.05 14.76C3.27 14.08 2.64 13.28 2.16 12.36ZM14.04 10.56C12.96 10.56 12.08 10.9 11.4 11.58C10.4 12.58 9.9 14.22 9.9 16.5V16.56C9.58 16.6 9.28 16.62 9 16.62C8.72 16.62 8.42 16.6 8.1 16.56V16.5C8.1 14.22 7.62 12.58 6.66 11.58C5.98 10.9 5.1 10.56 4.02 10.56H3.96C3.24 10.56 2.48 10.72 1.68 11.04C1.52 10.44 1.42 9.84 1.38 9.24C2.18 8.92 3.08 8.64 4.08 8.4C5.84 7.92 7.48 7.68 9 7.68C10.52 7.68 12.22 7.94 14.1 8.46C15.06 8.7 15.88 8.96 16.56 9.24C16.56 9.84 16.48 10.44 16.32 11.04C15.52 10.72 14.76 10.56 14.04 10.56ZM11.4 9.66C11.4 9.86 11.33 10.03 11.19 10.17C11.05 10.31 10.88 10.38 10.68 10.38H7.26C7.06 10.38 6.9 10.31 6.78 10.17C6.66 10.03 6.6 9.86 6.6 9.66C6.6 9.46 6.66 9.29 6.78 9.15C6.9 9.01 7.06 8.94 7.26 8.94H10.68C10.88 8.94 11.05 9.01 11.19 9.15C11.33 9.29 11.4 9.46 11.4 9.66Z" fill="#050B20"/>
</g>
<defs>
<clipPath id="clip0_9_734">
<rect width="18" height="18" fill="white" transform="matrix(1 0 0 -1 0 18)"/>
</clipPath>
</defs>
</svg>
