<svg width="19" height="18" viewBox="0 0 19 18" fill="none" xmlns="http://www.w3.org/2000/svg">
<g clip-path="url(#clip0_9_747)">
<path d="M17.96 6.71993H16.28C16.12 6.71993 15.98 6.77993 15.86 6.89993C15.74 7.01993 15.68 7.15993 15.68 7.31993V7.85993H15.14V7.31993C15.14 7.15993 15.08 7.02993 14.96 6.92993C14.84 6.82993 14.7 6.77993 14.54 6.77993H13.7L12.14 5.21993C12.1 5.17993 12.04 5.13993 11.96 5.09993C11.88 5.05993 11.82 5.03993 11.78 5.03993H10.04V3.95993H11.18C11.34 3.95993 11.48 3.89993 11.6 3.77993C11.72 3.65993 11.78 3.51993 11.78 3.35993C11.78 3.19993 11.72 3.06993 11.6 2.96993C11.48 2.86993 11.34 2.81993 11.18 2.81993H6.14C5.98 2.81993 5.84 2.86993 5.72 2.96993C5.6 3.06993 5.54 3.19993 5.54 3.35993C5.54 3.51993 5.6 3.65993 5.72 3.77993C5.84 3.89993 5.98 3.95993 6.14 3.95993H7.28V5.03993H5.54L5.3 5.15993L5.12 5.27993L4.16 6.71993H2.78C2.62 6.71993 2.48 6.77993 2.36 6.89993C2.24 7.01993 2.18 7.15993 2.18 7.31993V8.99993H1.64V7.31993C1.64 7.15993 1.58 7.02993 1.46 6.92993C1.34 6.82993 1.2 6.76993 1.04 6.74993C0.88 6.72993 0.75 6.77993 0.65 6.89993C0.55 7.01993 0.5 7.15993 0.5 7.31993V12.3599C0.5 12.5199 0.55 12.6599 0.65 12.7799C0.75 12.8999 0.88 12.9599 1.04 12.9599C1.2 12.9599 1.34 12.8999 1.46 12.7799C1.58 12.6599 1.64 12.5199 1.64 12.3599V10.1399H2.18V12.3599C2.18 12.5199 2.24 12.6599 2.36 12.7799C2.48 12.8999 2.6 12.9599 2.72 12.9599H4.1L5.06 14.8799L5.18 14.9999L5.3 15.1199L5.54 15.1799H12.32C12.4 15.1799 12.48 15.1599 12.56 15.1199L12.74 14.9999L14.84 12.3599H15.68V12.9599C15.68 13.1199 15.74 13.2499 15.86 13.3499C15.98 13.4499 16.12 13.4999 16.28 13.4999H17.96C18.12 13.4999 18.25 13.4499 18.35 13.3499C18.45 13.2499 18.5 13.1199 18.5 12.9599V7.31993C18.5 7.15993 18.45 7.02993 18.35 6.92993C18.25 6.82993 18.12 6.77993 17.96 6.77993V6.71993ZM17.36 12.3599H16.82V11.8199C16.82 11.6599 16.76 11.5199 16.64 11.3999C16.52 11.2799 16.4 11.2199 16.28 11.2199L14.54 11.2799L14.3 11.3399L14.12 11.4599L12.02 14.0399H5.9L4.94 12.0599L4.82 11.9399L4.52 11.8199H3.32V7.85993H4.46H4.64L4.82 7.73993L5.84 6.17993H7.82C7.98 6.17993 8.11 6.12993 8.21 6.02993C8.31 5.92993 8.36 5.79993 8.36 5.63993V3.95993H8.96V5.63993C8.96 5.79993 9.01 5.92993 9.11 6.02993C9.21 6.12993 9.34 6.17993 9.5 6.17993H11.54L13.04 7.67993C13.08 7.75993 13.14 7.80993 13.22 7.82993C13.3 7.84993 13.38 7.85993 13.46 7.85993H14V8.45993C14 8.61993 14.05 8.74993 14.15 8.84993C14.25 8.94993 14.38 8.99993 14.54 8.99993H16.28C16.4 8.99993 16.52 8.94993 16.64 8.84993C16.76 8.74993 16.82 8.61993 16.82 8.45993V7.85993H17.36V12.3599ZM11.48 7.97993C11.36 7.89993 11.23 7.86993 11.09 7.88993C10.95 7.90993 10.82 7.97993 10.7 8.09993L8.42 11.5799L7.04 10.4999C6.92 10.4199 6.78 10.3899 6.62 10.4099C6.46 10.4299 6.33 10.4999 6.23 10.6199C6.13 10.7399 6.09 10.8799 6.11 11.0399C6.13 11.1999 6.2 11.3199 6.32 11.3999L8.18 12.8399C8.3 12.9199 8.42 12.9599 8.54 12.9599H8.6C8.76 12.9199 8.88 12.8199 8.96 12.6599L11.66 8.75993C11.74 8.63993 11.77 8.49993 11.75 8.33993C11.73 8.17993 11.64 8.05993 11.48 7.97993Z" fill="#050B20"/>
</g>
<defs>
<clipPath id="clip0_9_747">
<rect width="18" height="18" fill="white" transform="matrix(1 0 0 -1 0.5 18)"/>
</clipPath>
</defs>
</svg>
