<svg width="19" height="18" viewBox="0 0 19 18" fill="none" xmlns="http://www.w3.org/2000/svg">
<g clip-path="url(#clip0_9_776)">
<path d="M7.0998 8.4C6.9398 8.4 6.7998 8.34 6.6798 8.22C6.5598 8.1 6.4998 7.96 6.4998 7.8V6C6.4598 5.76 6.5498 5.57 6.7698 5.43C6.9898 5.29 7.2098 5.29 7.4298 5.43C7.6498 5.57 7.7398 5.76 7.6998 6V7.8C7.6998 7.96 7.6398 8.1 7.5198 8.22C7.3998 8.34 7.2598 8.4 7.0998 8.4ZM9.4998 8.4C9.3398 8.4 9.1998 8.34 9.0798 8.22C8.9598 8.1 8.8998 7.96 8.8998 7.8V5.4C8.8998 5.24 8.9598 5.11 9.0798 5.01C9.1998 4.91 9.3398 4.86 9.4998 4.86C9.6598 4.86 9.7998 4.91 9.9198 5.01C10.0398 5.11 10.0998 5.24 10.0998 5.4V7.8C10.0998 7.96 10.0398 8.1 9.9198 8.22C9.7998 8.34 9.6598 8.4 9.4998 8.4ZM11.8998 8.4C11.7398 8.4 11.5998 8.34 11.4798 8.22C11.3598 8.1 11.2998 7.96 11.2998 7.8V4.2C11.2598 3.96 11.3498 3.77 11.5698 3.63C11.7898 3.49 12.0098 3.49 12.2298 3.63C12.4498 3.77 12.5398 3.96 12.4998 4.2V7.8C12.4998 7.96 12.4398 8.1 12.3198 8.22C12.1998 8.34 12.0598 8.4 11.8998 8.4ZM14.2998 18H4.6998C4.0198 18 3.4498 17.77 2.9898 17.31C2.5298 16.85 2.2998 16.28 2.2998 15.6V4.74C2.2998 4.3 2.3898 3.87 2.5698 3.45C2.7498 3.03 3.0198 2.68 3.3798 2.4L5.4798 0.720001C5.9998 0.24 6.6198 0 7.3398 0H14.2998C14.9798 0 15.5498 0.23 16.0098 0.690001C16.4698 1.15 16.6998 1.72 16.6998 2.4V15.6C16.6998 16.28 16.4698 16.85 16.0098 17.31C15.5498 17.77 14.9798 18 14.2998 18ZM7.3398 1.2C6.9398 1.2 6.5798 1.34 6.2598 1.62L4.1598 3.36C3.7198 3.72 3.4998 4.18 3.4998 4.74V15.6C3.4998 15.92 3.6198 16.2 3.8598 16.44C4.0998 16.68 4.3798 16.8 4.6998 16.8H14.2998C14.6198 16.8 14.8998 16.68 15.1398 16.44C15.3798 16.2 15.4998 15.92 15.4998 15.6V2.4C15.4998 2.08 15.3798 1.8 15.1398 1.56C14.8998 1.32 14.6198 1.2 14.2998 1.2H7.3398ZM13.0998 14.4H5.8998C5.6598 14.44 5.4698 14.35 5.3298 14.13C5.1898 13.91 5.1898 13.69 5.3298 13.47C5.4698 13.25 5.6598 13.16 5.8998 13.2H13.0998C13.3398 13.16 13.5298 13.25 13.6698 13.47C13.8098 13.69 13.8098 13.91 13.6698 14.13C13.5298 14.35 13.3398 14.44 13.0998 14.4ZM13.0998 11.4H5.8998C5.7398 11.4 5.6098 11.34 5.5098 11.22C5.4098 11.1 5.3598 10.96 5.3598 10.8C5.3598 10.64 5.4098 10.5 5.5098 10.38C5.6098 10.26 5.7398 10.2 5.8998 10.2H13.0998C13.3398 10.16 13.5298 10.25 13.6698 10.47C13.8098 10.69 13.8098 10.91 13.6698 11.13C13.5298 11.35 13.3398 11.44 13.0998 11.4Z" fill="#050B20"/>
</g>
<defs>
<clipPath id="clip0_9_776">
<rect width="18" height="18" fill="white" transform="matrix(1 0 0 -1 0.5 18)"/>
</clipPath>
</defs>
</svg>
